<mxfile host="65bd71144e">
    <diagram id="OnEnxwXNac1VsHZyFq_4" name="1.Step">
        <mxGraphModel dx="850" dy="609" grid="1" gridSize="10" guides="1" tooltips="1" connect="1" arrows="1" fold="1" page="1" pageScale="1" pageWidth="827" pageHeight="1169" math="0" shadow="0">
            <root>
                <mxCell id="0"/>
                <mxCell id="1" parent="0"/>
                <mxCell id="2" value="" style="shape=actor;whiteSpace=wrap;html=1;" vertex="1" parent="1">
                    <mxGeometry x="330" y="340" width="120" height="140" as="geometry"/>
                </mxCell>
                <mxCell id="3" value="USER" style="ellipse;shape=cloud;whiteSpace=wrap;html=1;" vertex="1" parent="1">
                    <mxGeometry x="480" y="140" width="200" height="140" as="geometry"/>
                </mxCell>
                <mxCell id="4" value="BOOKS" style="ellipse;shape=cloud;whiteSpace=wrap;html=1;" vertex="1" parent="1">
                    <mxGeometry x="170" y="140" width="120" height="80" as="geometry"/>
                </mxCell>
            </root>
        </mxGraphModel>
    </diagram>
</mxfile>